<svg xmlns="http://www.w3.org/2000/svg" viewBox="0 0 448 512" width="200" height="200">
  <!-- Define the gradient animation -->
  <defs>
    <linearGradient id="animatedGradient" x1="0%" y1="0%" x2="100%" y2="0%">
      <stop offset="0%" stop-color="#00ffca">
        <animate attributeName="stop-color" values="#00ffca;#ff0066;#00ffca" dur="10s" repeatCount="indefinite" />
      </stop>
      <stop offset="100%" stop-color="#ff0066">
        <animate attributeName="stop-color" values="#ff0066;#00ffca;#ff0066" dur="10s" repeatCount="indefinite" />
      </stop>
    </linearGradient>
  </defs>

  <!-- Apply gradient to the icon path -->
  <path d="M246.6 470.6c-12.5 12.5-32.8 12.5-45.3 0l-160-160c-12.5-12.5-12.5-32.8 0-45.3s32.8-12.5 45.3 0L224 402.7 361.4 265.4c12.5-12.5 32.8-12.5 45.3 0s12.5 32.8 0 45.3l-160 160zm160-352l-160 160c-12.5 12.5-32.8 12.5-45.3 0l-160-160c-12.5-12.5-12.5-32.8 0-45.3s32.8-12.5 45.3 0L224 210.7 361.4 73.4c12.5-12.5 32.8-12.5 45.3 0s12.5 32.8 0 45.3z"
        fill="url(#animatedGradient)"/>
</svg>
