<svg height="28" viewBox="0 0 153 28" width="153" xmlns="http://www.w3.org/2000/svg">
  <g fill="none" transform="translate(0 .8618)">
    <path d="m35.5535215 0h10.18202c1.7502157-.0110841 3.4817044.367698 5.0732115 1.11006738 1.5473721.7169447 2.9518568 1.71842371 4.1430808 2.95425668 1.1879768 1.24004469 2.1349168 2.69809169 2.7908107 4.29713945.6765551 1.62509975 1.0228878 3.37312139 1.0181258 5.13846869.0028243 1.7517748-.3373135 3.4865209-1.0005367 5.102613-.6474966 1.604506-1.5886444 3.068765-2.7732215 4.3146405-1.1872417 1.2452281-2.5924026 2.2532697-4.1430808 2.9721845-1.6033279.7451713-3.3471367 1.1239595-5.1092274 1.1098205h-10.1811824z" fill="#8282fb"></path>
    <path d="m17.7378134 0h10.18202c1.7502156-.0110841 3.4817044.367698 5.0732114 1.11006738 1.5473674.71695321 2.9518507 1.71843119 4.1430808 2.95425668 1.1879689 1.24005118 2.1349079 2.69809656 2.7908108 4.29713945.6765551 1.62509975 1.0228877 3.37312139 1.0181258 5.13846869.002813 1.7517736-.3373243 3.4865176-1.0005367 5.102613-.6474875 1.6045109-1.5886365 3.0687716-2.7732216 4.3146405-1.1872416 1.2452281-2.5924025 2.2532697-4.1430808 2.9721845-1.6033193.7451977-3.3471339 1.123987-5.1092273 1.1098205h-10.1811824z" fill="#da449c"></path>
    <path d="m0 0h10.18202c1.7502156-.0110841 3.4817044.367698 5.0732114 1.11006738 1.5473674.71695321 2.9518507 1.71843119 4.1430809 2.95425668 1.1879767 1.24004469 2.1349167 2.69809169 2.7908107 4.29713945.6765551 1.62509975 1.0228877 3.37312139 1.0181258 5.13846869.002813 1.7517736-.3373243 3.4865176-1.0005367 5.102613-.6479505 1.6047945-1.5896755 3.0692116-2.7748967 4.3150673-1.1872416 1.2452282-2.5924025 2.2532697-4.1430808 2.9721846-1.6033236.7451845-3.3471353 1.1239732-5.1092273 1.1098204h-10.1795073z" fill="#008454"></path>
    <g fill="#fff">
      <path d="m69.4226732 12.5599997h1.9310366c2.1366622 0 3.2049932-.9498925 3.2049932-2.84967748 0-1.89978497-1.068331-2.84953517-3.2049932-2.84925067h-1.9289427zm0 12.368949h-5.8165622v-22.85803292h9.2590088c2.5127347 0 4.4367916.66703055 5.7721705 2.00109166 1.3353789 1.3340611 2.0030684 3.21349936 2.0030684 5.63831478 0 2.42538458-.6676895 4.30496508-2.0030684 5.63874158-1.3353789 1.3337766-3.2594358 2.0006649-5.7721705 2.0006649h-3.4424466z"></path>
      <path d="m95.3306436 7.10309785h-6.9154648v3.82034345h6.5331103v5.0317553h-6.5331103v3.9411431h6.9175587v5.0321821h-12.7387276v-22.85760602h12.7366337z"></path>
      <path d="m104.138198 12.2872399h1.102253c.937842.0626662 1.869701-.1924557 2.650516-.7256518.622915-.5027044.966665-1.2830745.921336-2.0915847.045401-.80852366-.298364-1.58892595-.921336-2.09158471-.780815-.53319607-1.712674-.78831802-2.650516-.72565184h-1.102253zm12.837562 12.6417088h-7.267667l-5.569895-8.7931929v8.7931929h-5.8379207v-22.85803292h9.0847927c1.116873-.02360353 2.228171.16665172 3.276187.56088618.870189.33189513 1.658218.85458987 2.308366 1.53112538.603428.64355513 1.069933 1.40721516 1.370278 2.24311789.311806.87424805.467814 1.7982573.460668 2.72845091.068084 1.51144196-.367635 3.00188986-1.236266 4.22884276-.92654 1.145081-2.217539 1.9229373-3.648491 2.1982983z"></path>
      <path d="m126.803484 7.10309785v17.82585085h-5.824519v-17.82585085h-4.784666v-5.03218207h15.393432v5.03218207z"></path>
      <path d="m138.803049 10.8927079h8.388346v-8.82179212h5.808605v22.85803292h-5.808605v-9.4279248h-8.388346v9.4279248h-5.808605v-22.85803292h5.808605z"></path>
    </g>
  </g>
</svg>
